<?xml version="1.0" encoding="UTF-8" standalone="no"?>
<!DOCTYPE svg PUBLIC "-//W3C//DTD SVG 1.1//EN" "http://www.w3.org/Graphics/SVG/1.1/DTD/svg11.dtd">
<svg xmlns="http://www.w3.org/2000/svg" xmlns:xlink="http://www.w3.org/1999/xlink" version="1.1" width="612pt" height="792pt" viewBox="0 0 612 792">
<g enable-background="new">
<path transform="matrix(.75,0,0,.75,0,0)" d="M 0 0 L 816 0 L 816 1056 L 0 1056 Z " fill="#ffffff"/>
<text fill="#0b5394" xml:space="preserve" transform="matrix(.75 0 0 .75 57.600004 21.599999)" font-size="34.666669" font-family="ArialMT"><tspan y="33.28" x="0 23.115448 42.389604 53.930406 65.47121 82.79933 92.42795 109.75607 129.03023 148.30438 157.933 182.96063 202.23479 219.56291 238.83707 258.1112 275.43934 283.13887 302.41304 321.6872">Perry von Rosenvinge</tspan></text>
<text xml:space="preserve" transform="matrix(.75 0 0 .75 57.600004 53.100004)" font-size="18.666666" font-family="ArialMT"><tspan y="24.586667" x="0 11.395981 21.771698 25.91652 30.06134 35.244646 47.688219 52.87152 63.24724 72.57536 81.90349 87.08679 99.530368 109.90608 115.089389 120.27269 133.74564 144.12136 150.33403 160.70975 165.89305 178.33663 188.71234 199.08806 203.23288 213.6086 223.98432 234.36003">Full Stack Software Engineer</tspan></text>
<text xml:space="preserve" transform="matrix(.75 0 0 .75 57.600004 74.850009)" font-size="13.333333" font-family="ArialMT"><tspan y="19.466668" x="0 7.4124758 14.824951 21.489014 24.45633 33.346086 40.75856 48.171037 55.58351 58.5446 65.95708 72.62114 76.32413 79.786319 83.4893 90.90178 98.314258 105.72673 110.1651 117.577579 124.99005 132.40253 136.8409 144.25337 151.66585 159.07833 166.4908 170.19379">Los Angeles | 339-222-6762 |</tspan></text>
<text fill="#1155cc" xml:space="preserve" transform="matrix(.75 0 0 .75 57.600004 74.850009)" font-size="13.333333" font-family="ArialMT"><tspan y="19.466668" x="178.09464 189.19707 196.60955 210.13942 217.5519 224.96437 229.40274 233.84111 240.50518 247.16924 254.58171 261.9942 265.6972 273.10969 280.52217">me@perryvon.dev</tspan></text>
<text xml:space="preserve" transform="matrix(.75 0 0 .75 57.600004 74.850009)" font-size="13.333333" font-family="ArialMT"><tspan y="19.466668" x="290.88917">|</tspan></text>
<text fill="#1155cc" xml:space="preserve" transform="matrix(.75 0 0 .75 57.600004 74.850009)" font-size="13.333333" font-family="ArialMT"><tspan y="19.466668" x="298.05436 305.46684 312.8793 317.3177 321.75605 328.4201 335.08418 342.49665 349.90913 353.61213 361.0246 368.43708">perryvon.dev</tspan></text>
<text xml:space="preserve" transform="matrix(.75 0 0 .75 57.600004 74.850009)" font-size="13.333333" font-family="TimesNewRomanPSMT"><tspan y="19.466668" x="378.43318">|</tspan></text>
<text fill="#1155cc" xml:space="preserve" transform="matrix(.75 0 0 .75 57.600004 74.850009)" font-size="13.333333" font-family="ArialMT"><tspan y="19.466668" x="384.4334 394.80049 397.76158 401.46455 411.0897 418.50218">GitHub</tspan></text>
<text xml:space="preserve" transform="matrix(.75 0 0 .75 57.600004 74.850009)" font-size="13.333333" font-family="TimesNewRomanPSMT"><tspan y="19.466668" x="429.24668">|</tspan></text>
<text fill="#1155cc" xml:space="preserve" transform="matrix(.75 0 0 .75 57.600004 74.850009)" font-size="13.333333" font-family="ArialMT"><tspan y="19.466668" x="435.24696 442.65943 445.6205 453.033 459.69706 467.10954 474.522 478.22499">LinkedIn</tspan></text>
<path transform="matrix(.75,0,0,.75,57.600004,100.740009)" stroke-width="1.3333334" stroke-linecap="butt" stroke-miterlimit="10" stroke-linejoin="miter" fill="none" stroke="#888888" d="M 4.5333335 -1.6533333 L 657.86666 -1.6533333 "/>
<text fill="#0b5394" xml:space="preserve" transform="matrix(.75 0 0 .75 57.600004 108.600009)" font-size="18.666666" font-family="ArialMT"><tspan y="17.92" x="0 17.608658 32.120088 45.593034">WORK</tspan></text>
<text fill="#0b5394" xml:space="preserve" transform="matrix(.75 0 0 .75 57.600004 108.600009)" font-size="18.666666" font-family="ArialMT"><tspan y="17.92" x="63.21991 75.66348 88.107059 100.55063 112.9942 126.46715 131.65045 144.09403 157.56697 171.03992">EXPERIENCE</tspan></text>
<text xml:space="preserve" transform="matrix(.75 0 0 .75 57.600004 131.85)" font-size="14.666667" font-family="Arial" font-weight="bold"><tspan y="14.08" x="0 8.952621 17.10373 21.175705 30.95131 39.90393 44.784578 49.665224 61.065324 69.21643 74.92006 83.07117 87.14314 96.91875 105.87137 114.82399 118.895969 127.84859 135.9997 144.1508">L2 Software Engineer</tspan></text>
<text fill="#0b5394" xml:space="preserve" transform="matrix(.75 0 0 .75 57.600004 131.85)" font-size="14.666667" font-family="ArialMT"><tspan y="14.08" x="538.1733 547.1259 555.27706 558.5332 561.78939 565.8613 574.01248 582.1636 590.3147 598.4658 602.5378 607.41848 611.4904 621.266 626.1466 634.2977 641.62588 649.777 657.9281">Fall 2021 - Present</tspan></text>
<text xml:space="preserve" transform="matrix(.75 0 0 .75 57.600004 148.35)" font-size="12" font-family="Arial" font-style="italic"><tspan y="11.52" x="0 6.2285158 12.9005169 21.564518 28.236519 34.23652 40.90852 43.57252 50.244524 53.58052 56.70052 60.036523 68.70052 75.37253 85.36853 92.04053 95.376529">Township | Remote</tspan></text>
<text xml:space="preserve" transform="matrix(.75 0 0 .75 57.600004 161.85)" font-size="13.333333" font-family="ArialMT"><tspan y="12.8" x="0">&#x25cf;</tspan></text>
<text xml:space="preserve" transform="matrix(.75 0 0 .75 57.600004 161.85)" font-size="13.333333" font-family="ArialMT"><tspan y="12.8" x="24 36.338838 43.751314 48.189683 54.853746 62.26622 69.678699 73.38168 83.006839 85.967929 89.67091 97.08339 100.78638 108.19885 111.90184 121.52699 124.48808 131.90056 139.31304 143.01602 149.68009 157.09256 161.53093 164.49202 171.9045 175.60749 182.27155 185.97454 193.38701 197.09 200.79299 203.75408 211.16655 218.57903 225.9915 233.40398 240.81645 248.22893 255.6414 262.30549 266.00849 273.42097 280.83345 288.2459 291.94889 295.6519 300.09025 307.50273 318.60514 326.0176 335.64277 343.05525 347.49363 354.15769 360.82176 364.52476 368.22776 371.93077 376.3691 383.7816 394.884 398.587 407.47679 410.43788 413.39897 420.06303 423.0241 427.4625 431.1655 440.05528 447.46775 454.88023 462.2927 469.70518 472.66627 479.33033 483.0333 486.7363 493.40037 500.81285 507.4769 514.8894 521.55349 528.2175 532.6559 535.61697 543.0294 546.7324 550.4354 554.1384 562.5334 569.94589 577.35836 581.06137 584.76437 594.3895 601.802 608.46609 612.16909 615.8721 619.5751 629.2002 636.6127 644.02517 650.6892 654.3922">Worked with a wide variety of languages and frameworks, from Elixir/Phoenix, Javascript, Vue, Next, React,</tspan></text>
<text xml:space="preserve" transform="matrix(.75 0 0 .75 57.600004 175.35)" font-size="13.333333" font-family="ArialMT"><tspan y="12.8" x="24 33.625154 41.03763 48.450105 55.114168 58.817155 62.52014 72.145298 79.55777 83.26076 86.22185 92.88591 100.298389 104.00137 111.41385 118.826328 126.2388 129.94179 141.04422 148.4567 152.89507 160.30754">React Native and more.</tspan></text>
<text xml:space="preserve" transform="matrix(.75 0 0 .75 57.600004 188.84999)" font-size="13.333333" font-family="ArialMT"><tspan y="12.8" x="0">&#x25cf;</tspan></text>
<text xml:space="preserve" transform="matrix(.75 0 0 .75 57.600004 188.84999)" font-size="13.333333" font-family="ArialMT"><tspan y="12.8" x="24 32.889757 40.30223 47.714708 55.127183 59.56555 66.97803 74.3905 81.80298 89.215457 96.62793 104.040409 107.74339 115.15587 118.85886 126.27133 133.6838 143.30896 147.01195 154.42443 161.8369 169.24938 176.66185 184.07433 188.5127 195.92517 198.88626 206.29874 213.71121 217.4142 224.82668 229.26505 236.67752 244.09 248.52837 255.94084 267.04328 270.74629 274.44929 281.86177 286.30015 290.00315 292.96424 300.3767 307.78919 310.75028 318.16276 322.6011 326.3041 333.71659 341.12907 347.79313 355.2056 358.1667 365.57917 372.99165 380.4041 384.8425 391.50657 395.20957 404.83473 407.7958 411.4988 418.9113 422.6143 430.02677 437.43925 441.14225 444.10334 447.06443 450.76744 454.47044 457.43153 464.844 468.54698 475.95945 480.3978 483.3589 490.77137 495.20976 498.91276 506.32524 512.98928 520.40176 527.8142 532.25259 535.2136 542.6261 550.0386 556.70266 564.1151 567.8181 575.2306 582.64309 590.05557 593.75857 601.171 604.6331 608.3361 615.7486 620.18698 627.5994 635.0119 638.7149">Spearheaded a new onboarding program for junior developers with no/little prior experience and offered a</tspan></text>
<text xml:space="preserve" transform="matrix(.75 0 0 .75 57.600004 202.34999)" font-size="13.333333" font-family="ArialMT"><tspan y="12.8" x="24 35.102434 42.514909 49.927385 53.63037 61.042848 65.48122 68.44231 75.85478 83.26726 86.970249 94.38272 98.82109 106.23357 113.64604 118.08441 125.49689 136.59932 140.3023 144.0053 151.41777 155.12076 162.53324 165.49433 168.45542 172.1584 179.57088 186.98336 196.6085 200.3115 207.72397 210.68506 215.12343 222.5359 229.19997">mentoring program to all new hires.</tspan></text>
<text xml:space="preserve" transform="matrix(.75 0 0 .75 57.600004 215.84999)" font-size="13.333333" font-family="ArialMT"><tspan y="12.8" x="0">&#x25cf;</tspan></text>
<text xml:space="preserve" transform="matrix(.75 0 0 .75 57.600004 215.84999)" font-size="13.333333" font-family="ArialMT"><tspan y="12.8" x="24 36.338838 43.751314 48.189683 54.853746 62.26622 69.678699 73.38168 80.79416 83.75525 88.19362 95.606098 102.27016 105.973148 108.934238 115.5983 119.301288 128.92644 131.88753 135.59052 143.00299 146.70598 154.11846 158.55683 165.9693 168.93039 176.34287 183.00693 186.70992 190.4129 201.51534 208.92781 216.34029 223.75276 231.16524 238.57772 243.01609 249.68015 253.38314 260.7956 267.45967 271.16267 280.7878 288.2003 291.16139 294.12248 297.82545 305.2379 311.90199 315.60499 322.26905 325.23014 328.19123 335.6037 343.01618 346.71919 353.38325 357.08625 360.78926 368.20173 371.90473 379.3172 385.98127 393.39375 400.0578 407.47029 411.17329 418.58576 422.28877 425.99177 433.40425 440.0683 446.73237 453.39643 457.09944 464.5119 471.92439 475.62739 483.03987 486.74287 494.15534 501.5678 508.9803 516.39279 519.3539 522.31497 529.7274 537.1399 540.8429 543.80398 551.21646 554.91946 562.3319 566.0349 572.699 580.11148 586.7755 590.4785 597.891 600.85208 608.2645 615.677 623.0895 626.05056">Worked directly with project managers as well as clients to execute tasks on a deadline in a sustainable</tspan></text>
<text xml:space="preserve" transform="matrix(.75 0 0 .75 57.600004 229.34999)" font-size="13.333333" font-family="ArialMT"><tspan y="12.8" x="24 35.102434 42.514909 49.927385 57.33986 64.752338 68.45503">manner.</tspan></text>
<text xml:space="preserve" transform="matrix(.75 0 0 .75 57.600004 242.84999)" font-size="13.333333" font-family="ArialMT"><tspan y="12.8" x="0">&#x25cf;</tspan></text>
<text xml:space="preserve" transform="matrix(.75 0 0 .75 57.600004 242.84999)" font-size="13.333333" font-family="ArialMT"><tspan y="12.8" x="24 33.625154 41.03763 44.740617 52.15309 58.817155 62.52014 69.93262 74.37099 81.78346 89.19594 92.898929 96.60191 104.01439 111.426868 118.83934 126.251819 133.66429 141.07677 148.48925 155.90172 159.6047 163.3077 170.72017 178.13265 185.54512 189.24811 193.68648 201.09896 208.51143 215.9239 218.885 223.32337 230.73584 238.14832 241.8513 248.51537 251.47646 254.43755 261.85005 269.2625 272.9655 279.62959 283.33256 290.74504 297.4091 300.37019 307.03425 310.7372 313.6983 321.11079 328.52326 332.22624 338.8903 346.30278 350.00578 353.70878 363.33393 370.7464 375.18479 382.59727 386.30027 390.00328 396.66734 404.0798 407.0409 413.70497 416.66606 424.07853 431.491 435.194 441.85807 446.29643 449.2575 452.96049 455.92158 462.58564 469.9981 472.9592 476.6622 484.07469 488.51304 492.9514 500.36387 504.80223 511.46629 515.1693 522.5818 529.99429 537.40676 541.10977 544.07089 551.48336 558.1474 561.8504 564.81149 567.7725 570.7336 573.69467 581.1071 588.5196 592.2226 598.88668 601.8477 609.2602 616.67269 624.08517 627.78817 634.4522 641.8647 649.27719">Refactored, debugged, and repaired clients existing software, solving critical errors and instilling clean code</tspan></text>
<text xml:space="preserve" transform="matrix(.75 0 0 .75 57.600004 256.34999)" font-size="13.333333" font-family="ArialMT"><tspan y="12.8" x="24 31.412476 35.850847 43.26332 49.927385 53.63037 56.59146 63.255525 70.668 77.33206">practices.</tspan></text>
<text xml:space="preserve" transform="matrix(.75 0 0 .75 57.600004 269.84999)" font-size="13.333333" font-family="ArialMT"><tspan y="12.8" x="0">&#x25cf;</tspan></text>
<text xml:space="preserve" transform="matrix(.75 0 0 .75 57.600004 283.34999)" font-size="14.666667" font-family="Arial" font-weight="bold"><tspan y="14.08" x="0 9.775604 18.728226 23.608872 28.489518 39.889619 48.040727 53.744356 61.895463 65.96744 75.74304 84.69566 93.648288 97.72026 106.67288 114.82399 122.9751 128.67873 132.7507 136.82268 145.7753 150.65595 158.80706 164.51068">Software Engineer Intern</tspan></text>
<text fill="#0b5394" xml:space="preserve" transform="matrix(.75 0 0 .75 57.600004 283.34999)" font-size="14.666667" font-family="ArialMT"><tspan y="14.08" x="569.9476 579.72317 587.87429 600.083 612.29177 620.4429 625.3235 629.39547 637.5466 645.6977 653.8488">Summer 2021</tspan></text>
<text xml:space="preserve" transform="matrix(.75 0 0 .75 57.600004 299.84999)" font-size="12" font-family="Arial" font-style="italic"><tspan y="11.52" x="0 9.996 16.668002 20.664002 23.328001 30.000002 33.336004 41.340005 48.012006 51.348009 54.684007 63.348009 70.020008 74.01601 80.688 84.024 87.36 90.48 93.816 102.48 109.15201 119.14801 125.82001 129.156">Marin Software  | Remote</tspan></text>
<text xml:space="preserve" transform="matrix(.75 0 0 .75 57.600004 313.34999)" font-size="13.333333" font-family="ArialMT"><tspan y="12.8" x="0">&#x25cf;</tspan></text>
<text xml:space="preserve" transform="matrix(.75 0 0 .75 57.600004 313.34999)" font-size="13.333333" font-family="ArialMT"><tspan y="12.8" x="24 35.102434 42.514909 45.475999 52.888475 56.59146 64.00394 66.96503 74.3775 81.78998 89.20245 92.90544 100.31792 107.73039 115.14287 118.845859 123.284229 130.6967 134.39969 141.81217 148.47623 152.17922 159.59169 164.03006 171.44254 178.85501 182.558 189.97048 197.38295 201.08594 208.49842 215.91089 223.32337 230.73584 233.69693 241.1094 245.54778 249.25077 256.66325 260.3662 264.80458 267.76567 275.17814 282.5906 290.00309 296.66716 303.3312 307.76957 311.47257 318.13664 325.5491 332.96159 340.37406 347.78654 355.199 361.86308 369.27555">Maintained and refactored an angular 2 &#x201c;legacy&#x201d; codebase.</tspan></text>
<text xml:space="preserve" transform="matrix(.75 0 0 .75 57.600004 326.84999)" font-size="13.333333" font-family="ArialMT"><tspan y="12.8" x="0">&#x25cf;</tspan></text>
<text xml:space="preserve" transform="matrix(.75 0 0 .75 57.600004 326.84999)" font-size="13.333333" font-family="ArialMT"><tspan y="12.8" x="24 36.338838 43.751314 48.189683 54.853746 62.26622 69.678699 73.38168 80.79416 83.75525 91.167728 98.5802 105.992679 112.65674 115.61783 123.030307 130.44278 134.14577 141.55825 145.26123 148.96422 156.3767 163.78917 174.8916 178.59459 186.00707 189.71006 193.41304 200.82552 207.48958 214.90206 219.34043 223.04341 230.45589 237.86837 245.28084 248.98383 256.3963 260.0993 267.51179 274.92427 279.3626 283.0656 290.4781 297.89057 304.55464 311.9671 314.9282 322.34068 329.75315 337.16563 341.604 348.26808 351.97108 355.67408 358.63517 366.04765 369.7506 377.1631 380.8661 387.53016 394.94264 399.38099 406.04505 409.74806 417.16053 424.573 431.23707 438.64955 449.75196 457.16444 464.5769 468.2799 475.69239 483.10487 486.80787 494.22035 501.6328 509.0453 512.7483 519.41238 523.11538 527.5537 534.9662 542.37869 553.4811 556.44216 559.4032 566.8157 574.22817 581.6406 585.3436 592.7561 600.1686 606.83267 614.2451 617.2062 624.61868 632.0311 643.13357 650.546 657.9585">Worked alongside a team of over 100 other developers, in a very documented and streamlined development</tspan></text>
<text xml:space="preserve" transform="matrix(.75 0 0 .75 57.600004 340.34999)" font-size="13.333333" font-family="ArialMT"><tspan y="12.8" x="24 31.412476 38.82495 45.489015 48.450105 52.888475 60.30095 67.713428 78.81586 86.22833 93.64081 97.343799">environment.</tspan></text>
<text xml:space="preserve" transform="matrix(.75 0 0 .75 57.600004 361.34999)" font-size="14.666667" font-family="Arial" font-weight="bold"><tspan y="14.08" x="0 9.775604 18.728226 27.680848 32.561494 41.514116 50.466737 56.170366 64.32147 73.27409 82.226718 90.37782 94.4498 105.03407 109.10605 120.50615 126.20978 134.36089 143.3135 152.26613 156.3381 164.48921 168.56119 179.14546 187.29657 195.44768 199.51966 208.47228">Photography &#x0026; Graphic Design</tspan></text>
<text fill="#0b5394" xml:space="preserve" transform="matrix(.75 0 0 .75 57.600004 361.34999)" font-size="14.666667" font-family="ArialMT"><tspan y="14.08" x="564.21536 572.36648 580.5176 588.6687 596.8198 600.8918 609.0429 613.11489 621.266 626.1466 634.2977 641.62588 649.777 657.9281">2017 &#x2013; present</tspan></text>
<text xml:space="preserve" transform="matrix(.75 0 0 .75 57.600004 377.84999)" font-size="12" font-family="Arial" font-style="italic"><tspan y="11.52" x="0 6.672001 13.344002 19.344002 22.236329 30.24033 36.91233 43.58433 50.256334 52.920335 59.592336 65.59233 68.92833 72.26433 80.92833">Los Angeles, CA</tspan></text>
<text xml:space="preserve" transform="matrix(.75 0 0 .75 57.600004 391.34999)" font-size="13.333333" font-family="ArialMT"><tspan y="12.8" x="0">&#x25cf;</tspan></text>
<text xml:space="preserve" transform="matrix(.75 0 0 .75 57.600004 391.34999)" font-size="13.333333" font-family="ArialMT"><tspan y="12.8" x="24 32.889757 40.30223 47.714708 54.37877 61.791246 69.20372 72.90671 76.609699 83.27376 89.93782 97.350299 104.76277 112.17525 119.58772 122.54881 129.96129 137.37377 141.07675 144.77974 152.19222 159.60469 167.01717 170.72016 177.38422 184.79669 192.20917 195.91216 199.61515 206.2792 209.9822 217.39467 224.80715 227.76824 235.18071 238.8837 246.29618 253.70865 261.12113 264.8241 272.23658 278.90065 286.3131 293.7256 297.4286 301.1316 308.54408 315.95655 323.36903 327.07203 334.4845 341.89698 346.33534 353.7478 361.16029 368.57276 375.23683 378.93983 383.37818 390.79066 398.20314 405.6156 408.5767 415.98918 423.40165 427.1046 430.80763 435.24598 442.65846 453.76087 457.46388 460.42497 467.83744 475.2499 482.66239 490.07487 497.48735 504.8998 512.31228 519.72476 527.1372 530.8402 534.5432 541.9557 546.39407 550.09707 553.0581 559.72219 563.4252 570.08926 573.79226 577.49526 584.9077 588.6107 591.5718 598.98428 603.4226 610.8351 618.24758">Booked, scheduled, and shot studio and event photography ranging from independent artists to larger</tspan></text>
<text xml:space="preserve" transform="matrix(.75 0 0 .75 57.600004 404.84999)" font-size="13.333333" font-family="ArialMT"><tspan y="12.8" x="24 27.702988 35.115465 42.52794 53.63037 58.06874 65.48122 72.89369 79.557758 86.97023 94.382709 98.08569 105.49817 109.93654 117.349018 124.76149 132.17397 135.87696 143.28943 147.7278 155.14028 158.10137 165.51384 172.1779 175.88089 182.54496">team-based brand projects.</tspan></text>
<text xml:space="preserve" transform="matrix(.75 0 0 .75 57.600004 418.34999)" font-size="13.333333" font-family="ArialMT"><tspan y="12.8" x="0">&#x25cf;</tspan></text>
<text xml:space="preserve" transform="matrix(.75 0 0 .75 57.600004 418.34999)" font-size="13.333333" font-family="ArialMT"><tspan y="12.8" x="24 33.625154 41.03763 47.70169 55.114168 58.075258 65.48773 72.90021 80.31268 87.72516 91.42815 98.84062 101.80171 109.21419 112.17528 115.878269 123.29074 126.25183 129.95482 137.3673 144.77977 152.19225 155.89524 163.30771 167.74608 170.70717 178.11965 181.82263 185.52562 192.9381 199.60216 206.26622 213.6787 217.38169 224.04575 227.74874 231.45172 238.8642 243.30257 247.00556 254.41803 258.85639 266.26887 277.37129 284.78376 288.48674 291.4478 298.8603 306.27278 313.68525 316.64634 320.34934 324.05235 330.7164 338.12889 344.79295 347.75404 355.1665 358.1276 361.8306 372.933 380.3455 387.75798 390.71907 398.13154 401.8345 409.24699 416.65946 423.32353 427.02653 433.69059 437.3936 441.0966 448.50907 455.92155 463.334 467.03703 473.70109 477.40409 484.81657 488.51957 491.48066 498.1447 501.8477 509.26017 515.9242 523.3367 527.775 531.478 534.4391 541.85159 545.55459 552.96707 557.4054 561.1084 568.5209 575.18496 582.5974 586.3004 589.2615 595.92556 603.338 610.7505 617.41458 621.11758 628.53 635.1941 638.15518 645.5676">Developed digital and print assets for promotional, social media posts, and static user interface icons using</tspan></text>
<text xml:space="preserve" transform="matrix(.75 0 0 .75 57.600004 431.84999)" font-size="13.333333" font-family="ArialMT"><tspan y="12.8" x="24 27.702988 35.115465 42.52794 45.495256 54.38501 61.797487 69.20996 76.62244 84.03491 87.7379 97.36305 101.80142 109.2139 116.62637 120.32936 123.29045 129.95452 137.36699 141.06998 149.95973 157.37221 160.3333 164.03629 171.44876">the Adobe Creative Suite.</tspan></text>
<path transform="matrix(.75,0,0,.75,57.600004,453.02998)" stroke-width="1.3333334" stroke-linecap="butt" stroke-miterlimit="10" stroke-linejoin="miter" fill="none" stroke="#888888" d="M 4.5333335 -2.04 L 657.86666 -2.04 "/>
<text fill="#0b5394" xml:space="preserve" transform="matrix(.75 0 0 .75 57.600004 461.09999)" font-size="18.666666" font-family="ArialMT"><tspan y="17.92" x="0 12.443573 25.91652 39.389467 52.86241 63.920564 75.31654 80.49985 95.01128">EDUCATION</tspan></text>
<text xml:space="preserve" transform="matrix(.75 0 0 .75 57.600004 484.34999)" font-size="14.666667" font-family="Arial" font-weight="bold"><tspan y="14.08" x="0 10.584274 14.65625 19.536896 28.489518 41.52127 45.593248 55.36885 63.51996 72.47258 81.4252 90.37782">Rithm School</tspan></text>
<text fill="#0b5394" xml:space="preserve" transform="matrix(.75 0 0 .75 57.600004 484.34999)" font-size="14.666667" font-family="ArialMT"><tspan y="14.08" x="521.0338 529.98648 538.1376 546.2887 550.36068 558.5118 566.6629 574.814 582.96517 587.0371 595.18826 599.2602 606.5883 614.73947 617.9956 625.3237 629.3957 637.5468 645.69796 653.84909">Feb 2021 &#x2013; July 2021</tspan></text>
<text xml:space="preserve" transform="matrix(.75 0 0 .75 57.600004 499.34999)" font-size="13.333333" font-family="Arial" font-style="italic"><tspan y="12.8" x="0 8.141357 15.553833 18.514924 21.476014 25.179 34.068758 37.771745 45.18422 51.84828 58.512346 62.215333 74.55417 81.966648 89.37912 93.08211 102.70726 110.119739 116.7838 124.19627 127.157367 134.56984 141.98232 153.08475 160.49723 167.9097 171.61269 175.31568 184.20543 191.6179 199.03038 202.73337 209.39743 216.8099 227.91234">Full Stack Web Development Bootcamp</tspan></text>
<text xml:space="preserve" transform="matrix(.75 0 0 .75 57.600004 499.34999)" font-size="13.333333" font-family="Arial" font-style="italic"><tspan y="12.8" x="551.291 560.1808 567.59329 575.00576 578.70877 586.8501 591.28848 598.7009 606.1134 612.77749 615.7385 622.4026 629.06668 636.4791 640.1821 643.88516 653.51028">San Francisco, CA</tspan></text>
<text xml:space="preserve" transform="matrix(.75 0 0 .75 57.600004 519.6)" font-size="14.666667" font-family="Arial" font-weight="bold"><tspan y="14.08" x="0 9.775604 17.926712 26.879334 31.75998 39.911088 43.983064 56.191835 65.144458 74.09708 78.16905 86.32016 94.47127 98.54324 109.12752 118.08014 122.152118 126.22409 134.3752 143.32782">Santa Monica College</tspan></text>
<text fill="#0b5394" xml:space="preserve" transform="matrix(.75 0 0 .75 57.600004 519.6)" font-size="14.666667" font-family="ArialMT"><tspan y="14.08" x="629.39559 637.5467 645.6978 653.84896">2020</tspan></text>
<text xml:space="preserve" transform="matrix(.75 0 0 .75 57.600004 534.6)" font-size="13.333333" font-family="Arial" font-style="italic"><tspan y="12.8" x="0 11.102432 18.514908 22.217896 29.630372 37.042848 48.14528 55.557756 59.260744 62.221834 68.885898 75.54996 79.252948 86.66542 94.077899 101.49037 105.19336 114.083118 121.49559 125.19858 128.90157 138.52672 145.9392 150.37757 157.79004 161.49303 170.38278 177.79526 185.20774 188.16883 195.5813 202.99378 210.40625 214.84462 217.80571 225.21819 232.63066 236.33365 239.79584 243.49883 250.9113 254.61429 262.02677 265.72975 276.0968 283.99699">Mathematics and Software Engineering | 4.0 GPA</tspan></text>
<text xml:space="preserve" transform="matrix(.75 0 0 .75 57.600004 534.6)" font-size="13.333333" font-family="Arial" font-style="italic"><tspan y="12.8" x="554.98098 563.8707 571.2832 578.6957 582.3987 589.81118 593.51419 604.6166 612.02908 619.4415 622.4026 629.06668 636.4791 640.1821 643.88516 653.51028">Santa Monica, CA</tspan></text>
<path transform="matrix(.75,0,0,.75,57.600004,555.77999)" stroke-width="1.3333334" stroke-linecap="butt" stroke-miterlimit="10" stroke-linejoin="miter" fill="none" stroke="#888888" d="M 4.5333335 -1.7066667 L 657.86666 -1.7066667 "/>
<text fill="#0b5394" xml:space="preserve" transform="matrix(.75 0 0 .75 57.600004 563.85)" font-size="18.666666" font-family="ArialMT"><tspan y="17.92" x="0 11.395981 23.839554 37.3125 50.785448 64.25839 69.441699 82.91464 95.358219 105.04123 110.22453 122.668109 135.11168 140.29499 150.6707 161.04642">TECHNICAL SKILLS</tspan></text>
<text xml:space="preserve" transform="matrix(.75 0 0 .75 57.600004 587.1)" font-size="14.666667" font-family="Arial" font-weight="bold"><tspan y="14.08" x="0 8.952621 17.10373 26.05635 35.008974 43.961595 52.1127 61.065324 69.21643">Languages</tspan></text>
<text xml:space="preserve" transform="matrix(.75 0 0 .75 57.600004 587.1)" font-size="12" font-family="ArialMT"><tspan y="14.08" x="84.03551">-</tspan></text>
<text xml:space="preserve" transform="matrix(.75 0 0 .75 57.600004 587.1)" font-size="13.333333" font-family="ArialMT"><tspan y="14.08" x="95.06857 103.95833 106.91942 109.88051 116.54457 119.50566 123.94403 127.64702 131.1092 134.8122 141.47626 148.88874 155.5528 162.96527 169.62934 176.2934 180.73177 183.69286 191.10533 194.80832 198.5113 201.9735 205.67649 214.56624 221.2303 224.93329 232.34577 239.75824 247.17072 250.8737 254.33589 257.79798 265.20368 271.86775 279.2802 286.6927 295.58247 302.24653 306.68489 309.64598 317.05845">Elixir | Javascript | Python | TypeScript</tspan></text>
<text xml:space="preserve" transform="matrix(.75 0 0 .75 57.600004 587.1)" font-size="13.333333" font-family="ArialMT"><tspan y="14.08" x="324.70533 328.1675 331.87049 340.76026 351.12733 358.04499 361.748 365.21018 368.91316 378.5383 386.67967 397.7821 404.69978 408.40278 411.86497 415.56794 425.19309 434.08283">| SQL | HTML | CSS</tspan></text>
<text xml:space="preserve" transform="matrix(.75 0 0 .75 57.600004 602.1)" font-size="14.666667" font-family="Arial" font-weight="bold"><tspan y="14.08" x="0 8.952621 13.024597 21.977219 27.680848 35.831956 41.535585 45.60756 53.758668 61.909776 65.98175 70.05373 74.1257 83.07832 88.78195 96.93306 109.96481 118.11592 129.51602 138.46865 144.17227 152.32338 160.47449 164.54647 168.61844 172.69042 180.55449 189.50711 198.45973 202.53171">Libraries / Frameworks / Tools</tspan></text>
<text xml:space="preserve" transform="matrix(.75 0 0 .75 57.600004 602.1)" font-size="14.666667" font-family="ArialMT"><tspan y="14.08" x="218.82677">-</tspan></text>
<text xml:space="preserve" transform="matrix(.75 0 0 .75 57.600004 602.1)" font-size="13.333333" font-family="ArialMT"><tspan y="14.08" x="231.48238 241.10753 248.52 255.93248 262.59657 266.29957 270.00257 273.70558 277.16777 280.87074 289.7605 297.17298 304.58546 311.99794 319.4104 322.3715">React  | Phoenix</tspan></text>
<text xml:space="preserve" transform="matrix(.75 0 0 .75 57.600004 602.1)" font-size="13.333333" font-family="ArialMT"><tspan y="14.08" x="336.44148 339.90367 343.60664 352.0016 359.41407 366.82655 370.52955 373.99174 377.6947 387.31986 394.73234 401.3964 405.09938 408.80238 412.26457 415.23188 424.12165 431.53413 438.9466 446.35908 449.32017 456.73265 461.17103 464.87403 468.57704 472.0392 475.7422 485.36735 492.77983 500.1923 506.85636 510.55934 514.0214 520.68496 528.0974 534.7615 538.4645 541.42556 548.838 556.2505 559.9535 567.36599 570.327 577.7395 582.17788 589.59036 594.0287 600.69277 604.39578 607.8579 611.5609 621.18606 628.5985 636.011 643.42349 647.12649">| Vue | Next | Angular  | React Testing Library | Node |</tspan></text>
<text xml:space="preserve" transform="matrix(.75 0 0 .75 57.600004 617.1)" font-size="13.333333" font-family="ArialMT"><tspan y="12.8" x="0 8.889755 15.553818 22.966294 27.404664 34.81714 41.4812 48.145265 51.84825 55.31044 59.013429 65.67749 73.089969 79.75403 83.457019 87.16 90.62219 94.32518 102.46654 105.42763 112.8401 119.504169 126.16823 129.87122 133.3334 137.03639 145.92615 156.2932 163.70568 172.59543 175.55652 182.22058 189.63306 197.04553 208.14797 214.81203 218.51502 221.9772 225.68019 234.56995 241.98242 248.64649 252.34947 259.76197 264.20033 271.6128 280.50257 290.86964 297.7873 301.4903 304.95249 308.65547 317.54524 326.435 336.06016 343.47264 350.8851 358.29759 362.00056 365.46275 369.1657 379.53279 382.49388 386.19685 389.89985 393.36204 397.065 407.43208 410.39317 414.09614 421.5086 428.92109">Express | Jest | Flask | SQLAlchemy | PostgreSQL | VSCode | Git | Github</tspan></text>
<path transform="matrix(.75,0,0,.75,57.600004,638.27999)" stroke-width="1.3333334" stroke-linecap="butt" stroke-miterlimit="10" stroke-linejoin="miter" fill="none" stroke="#888888" d="M 4.5333335 -2.3733333 L 657.86666 -2.3733333 "/>
<text fill="#0b5394" xml:space="preserve" transform="matrix(.75 0 0 .75 57.600004 646.35)" font-size="18.666666" font-family="ArialMT"><tspan y="17.92" x="0 12.443573 25.91652 40.427949 49.756074 62.199647 75.67259 87.06857">PROJECTS</tspan></text>
<text fill="#1155cc" xml:space="preserve" transform="matrix(.75 0 0 .75 57.600004 669.6)" font-size="14.666667" font-family="Arial" font-weight="bold"><tspan y="14.08" x="0 12.208771 21.161393 29.3125 37.463609 46.41623 52.119859 56.191835 64.34294">Moveprice</tspan></text>
<text xml:space="preserve" transform="matrix(.75 0 0 .75 57.600004 669.6)" font-size="14.666667" font-family="Arial" font-weight="bold"><tspan y="14.08" x="76.566028">-</tspan></text>
<text xml:space="preserve" transform="matrix(.75 0 0 .75 57.600004 669.6)" font-size="14.666667" font-family="ArialMT"><tspan y="14.08" x="85.51865 97.72742 105.878528 113.20665 116.4628 124.61391 132.76502 136.83699 146.6126 154.7637 158.83568 162.90766 173.49193 181.64304 186.52368">Moving Software</tspan></text>
<text xml:space="preserve" transform="matrix(.75 0 0 .75 57.600004 669.6)" font-size="14.666667" font-family="Arial" font-weight="bold"><tspan y="14.08" x="198.74677">-</tspan></text>
<text xml:space="preserve" transform="matrix(.75 0 0 .75 57.600004 669.6)" font-size="14.666667" font-family="ArialMT"><tspan y="14.08" x="207.69939 217.47499 225.6261 233.7772 241.92832 250.07942 253.33557 260.6637 264.73567 268.80763 272.87959 282.65519 285.91133 289.16749 296.4956 299.75178 304.63243 308.7044 313.58506 317.65705 327.43266 339.64143 349.41703">Phoenix / Elixir - SMS,</tspan></text>
<text xml:space="preserve" transform="matrix(.75 0 0 .75 57.600004 669.6)" font-size="14.666667" font-family="ArialMT"><tspan y="14.08" x="357.56098 368.96107 377.11219 385.2633 393.41444 396.6706 404.82173 408.89369 421.10246 429.25355 437.40467 444.7328 448.80476 452.8767 460.20484 468.35597 471.61213 479.76325 487.91438 496.0655 504.2166 509.09727 513.16928 522.9448 527.0168 536.79238 549.0011 557.1522 560.4084 563.66458 567.7365 570.9927 579.1438 583.21578 591.3669 599.518 604.3987 612.5498 616.62179 619.8779 628.02908 636.1802">Google maps, calendar &#x0026; Email integration.</tspan></text>
<text fill="#1155cc" xml:space="preserve" transform="matrix(.75 0 0 .75 57.600004 684.6)" font-size="14.666667" font-family="Arial" font-weight="bold"><tspan y="14.08" x="0 9.775604 14.65625 20.359879 28.510987 36.662096 49.693849 53.765825 57.8378 66.79042 74.94153">Streamlined</tspan></text>
<text xml:space="preserve" transform="matrix(.75 0 0 .75 57.600004 684.6)" font-size="14.666667" font-family="Arial" font-weight="bold"><tspan y="14.08" x="87.966129">-</tspan></text>
<text xml:space="preserve" transform="matrix(.75 0 0 .75 57.600004 684.6)" font-size="14.666667" font-family="ArialMT"><tspan y="14.08" x="96.91875 106.69435 110.76633 118.917438 122.98941 126.24556 133.57369 137.64566 151.21396 159.36507 167.51618 174.8443 178.10045 182.17243 190.32353 194.39551 199.27616 203.08316 211.22653 218.55466 226.70577 234.85688 242.185 249.51313 254.39377 257.6499 265.80104 269.873 273.94496 278.0169 282.08888 292.67317 300.82429 308.1524 312.22438 316.29634 319.5525">Static Website - Typescript / Next.js</tspan></text>
<text xml:space="preserve" transform="matrix(.75 0 0 .75 57.600004 684.6)" font-size="14.666667" font-family="ArialMT"><tspan y="14.08" x="331.2176 336.09825 340.17024 350.75453 358.90565 367.05677 371.12873 379.27986 387.43098 391.50294 395.5749 403.726 406.98219 411.05415 421.63844 433.8472 443.6228 447.69477 451.76673 462.351 470.50215 478.65327 482.72523 490.87635 498.20448 502.27644 506.3484 509.60456 517.7557 521.82766 529.97879 538.1299 543.0105 551.1616 555.2336 558.48977 566.64089 574.792">- Contentful CMS, Contact integration.</tspan></text>
<text fill="#1155cc" xml:space="preserve" transform="matrix(.75 0 0 .75 57.600004 699.6)" font-size="14.666667" font-family="Arial" font-weight="bold"><tspan y="14.08" x="0 10.584274 18.735383 27.688004 31.75998 39.911088 43.983064 53.758668 61.909776 70.8624 74.93437 83.88699 89.59062 97.74173">Radix Explorer</tspan></text>
<text xml:space="preserve" transform="matrix(.75 0 0 .75 57.600004 699.6)" font-size="14.666667" font-family="Arial" font-weight="bold"><tspan y="14.08" x="107.517337">/</tspan></text>
<text fill="#1155cc" xml:space="preserve" transform="matrix(.75 0 0 .75 57.600004 699.6)" font-size="14.666667" font-family="Arial" font-weight="bold"><tspan y="14.08" x="115.661289 127.061389 131.13336 139.28447 152.31623 161.26885 165.34082 173.49193 177.5639 190.8529 199.00402 203.07599 207.14797 215.29907">Olympia Wallet</tspan></text>
<text xml:space="preserve" transform="matrix(.75 0 0 .75 57.600004 699.6)" font-size="14.666667" font-family="Arial" font-weight="bold"><tspan y="14.08" x="224.2517">-</tspan></text>
<text xml:space="preserve" transform="matrix(.75 0 0 .75 57.600004 699.6)" font-size="14.666667" font-family="ArialMT"><tspan y="14.08" x="233.20432 243.78859 248.66924 255.99736 264.14848 268.22047 276.37159 280.44355 293.73255 301.88368 305.13984 308.396 316.54713 320.61909 324.69105">Crypto Wallet -</tspan></text>
<text xml:space="preserve" transform="matrix(.75 0 0 .75 57.600004 699.6)" font-size="14.666667" font-family="ArialMT"><tspan y="14.08" x="333.64363 341.787 349.1151 357.26625 365.41737 372.74549 380.0736 384.95426 388.2104 396.3615 400.43348 404.50544 413.73677 421.88789 430.039 434.11097 438.9916 443.0636 452.01625 456.89689 465.04798 473.1991 477.27107 481.34303 489.49415 497.64527 505.7964 509.86836 513.9403 521.26846 529.41958 537.5707 544.8988 553.0499 565.25869 573.4098 578.2904 582.36239 586.4343 594.58547 601.9136 605.16976 613.32089">Typescript/Vue - Front end, consumer facing</tspan></text>
<text xml:space="preserve" transform="matrix(.75 0 0 .75 57.600004 714.6)" font-size="14.666667" font-family="ArialMT"><tspan y="14.08" x="0 10.584274 18.735383 21.991532 25.24768 33.39879 37.470766 41.54274 45.614717 53.765825 58.64647 62.718446 66.79042 74.94153 83.092639 87.16461 97.748889 105.899997 114.0511 117.30725 124.635379 128.70735 136.03548 140.91613 148.24425 156.39536 160.46733 168.61844 175.94657 184.09767 188.97832 193.85897 202.01007 210.16118 217.4893 224.81743 228.8894 237.04051 244.36864 252.51975 259.84788 267.176 274.50413 278.5761 286.72724 298.936">wallet for the Radix cryptocurrency ecosystem.</tspan></text>
<text fill="#1155cc" xml:space="preserve" transform="matrix(.75 0 0 .75 57.600004 729.6)" font-size="14.666667" font-family="Arial" font-weight="bold"><tspan y="14.08" x="0 10.584274 19.536896 27.688004 33.391633 42.344255 50.49536 56.19899 66.783267 74.93437 79.00635 87.95897 92.030948 99.89502 108.04613 116.197238 125.14986 134.10248 138.17446 146.32556 150.39754 158.54865 167.50127 171.02898 181.61325 190.56587">ChargerHelp Technician App</tspan></text>
<text xml:space="preserve" transform="matrix(.75 0 0 .75 57.600004 729.6)" font-size="14.666667" font-family="ArialMT"><tspan y="14.08" x="204.13474 209.01538 212.2781 222.05371 230.20482 238.35593 243.23657 251.38768 254.64383 262.79493 266.86689 270.93885 275.0108 285.5951 293.74623 301.89735 309.22547 313.29743 317.3694 327.95368 336.1048 340.17677 343.43293 350.76106">- Android / React Native</tspan></text>
<text xml:space="preserve" transform="matrix(.75 0 0 .75 57.600004 729.6)" font-size="14.666667" font-family="ArialMT"><tspan y="14.08" x="363.7934 371.94453 375.75154 379.8235 383.07966 386.33583 394.48695 402.63807 406.71003 410.78199 414.03816 418.9188 426.24693 430.3189 434.39088 442.542 450.6931 458.84425 462.1004 465.35658 472.6847 480.83583 484.90779 488.16395 496.31507 504.4662 508.53816 512.6101 522.38577 530.53689 535.4175 539.48947 543.5614 551.7125 555.7845 559.85647 568.00759 572.0795 576.1515 584.3026 592.45376 604.6625 608.73446 612.8064 620.9575 628.28567 635.6138 643.7649">offline first application. Part of a team tasked</tspan></text>
<text xml:space="preserve" transform="matrix(.75 0 0 .75 57.600004 744.6)" font-size="14.666667" font-family="ArialMT"><tspan y="14.08" x="0 10.584274 13.840424 17.9124 26.063508 30.135483 37.463609 45.614717 48.870866 56.19899 59.45514 67.60625 75.757358 79.82933 87.157459 92.0381 95.29425 99.36623 102.622379 109.9505 118.10161 121.35776 125.42973 133.58084 141.73195 149.88306 157.21118 161.28316 169.43427 177.58538 185.73648 189.80846 197.13658 200.39273 208.54384 216.69495 224.84606 228.1022 236.25331 244.40442 248.4764 256.6275 264.77864 268.8506 277.0017 285.15284 289.2248 297.37593 304.70405 307.9602 315.28834 319.3603 322.61647 330.76759 338.9187 342.99067 351.14179 359.2929 367.44404 370.7002 373.95637 381.2845 389.4356 393.50758 396.76374 404.91487 413.06599">with solving critical bugs and cleaning up an existing application.</tspan></text>
<path transform="matrix(.75,0,0,.75,57.600004,74.850009)" stroke-width="1.3333334" stroke-linecap="butt" stroke-miterlimit="10" stroke-linejoin="miter" fill="none" stroke="#1155cc" d="M 177.86667 20.866667 L 287.2 20.866667 "/>
<path transform="matrix(.75,0,0,.75,57.600004,74.850009)" stroke-width="1.3333334" stroke-linecap="butt" stroke-miterlimit="10" stroke-linejoin="miter" fill="none" stroke="#000000" d="M 291.2 20.866667 L 293.86668 20.866667 "/>
<path transform="matrix(.75,0,0,.75,57.600004,74.850009)" stroke-width="1.3333334" stroke-linecap="butt" stroke-miterlimit="10" stroke-linejoin="miter" fill="none" stroke="#1155cc" d="M 297.86668 20.866667 L 375.2 20.866667 "/>
<path transform="matrix(.75,0,0,.75,57.600004,74.850009)" stroke-width="1.3333334" stroke-linecap="butt" stroke-miterlimit="10" stroke-linejoin="miter" fill="none" stroke="#1155cc" d="M 384.53334 20.866667 L 425.86668 20.866667 "/>
<path transform="matrix(.75,0,0,.75,57.600004,74.850009)" stroke-width="1.3333334" stroke-linecap="butt" stroke-miterlimit="10" stroke-linejoin="miter" fill="none" stroke="#1155cc" d="M 435.2 20.866667 L 485.86668 20.866667 "/>
<path transform="matrix(.75,0,0,.75,57.600004,669.6)" stroke-width="1.3333334" stroke-linecap="butt" stroke-miterlimit="10" stroke-linejoin="miter" fill="none" stroke="#1155cc" d="M .53333339 15.866667 L 72.53333 15.866667 "/>
<path transform="matrix(.75,0,0,.75,57.600004,684.6)" stroke-width="1.3333334" stroke-linecap="butt" stroke-miterlimit="10" stroke-linejoin="miter" fill="none" stroke="#1155cc" d="M .53333339 15.866667 L 84.53333 15.866667 "/>
<path transform="matrix(.75,0,0,.75,57.600004,699.6)" stroke-width="1.3333334" stroke-linecap="butt" stroke-miterlimit="10" stroke-linejoin="miter" fill="none" stroke="#1155cc" d="M .53333339 15.866667 L 103.2 15.866667 "/>
<path transform="matrix(.75,0,0,.75,57.600004,699.6)" stroke-width="1.3333334" stroke-linecap="butt" stroke-miterlimit="10" stroke-linejoin="miter" fill="none" stroke="#1155cc" d="M 115.2 15.866667 L 220.53334 15.866667 "/>
<path transform="matrix(.75,0,0,.75,57.600004,729.6)" stroke-width="1.3333334" stroke-linecap="butt" stroke-miterlimit="10" stroke-linejoin="miter" fill="none" stroke="#1155cc" d="M .53333339 15.866667 L 200.53334 15.866667 "/>
</g>
</svg>
